<svg width="80" height="100" viewBox="0 0 80 100" fill="none" xmlns="http://www.w3.org/2000/svg">
<path d="M50.0341 66.3193L58.8486 61.5281L74.1847 89.7422C74.646 90.5908 74.0466 91.6271 73.081 91.6506L64.5857 91.8562C64.17 91.8664 63.7847 92.0758 63.5501 92.4191L58.7573 99.4365C58.2126 100.234 57.0169 100.174 56.5556 99.3248L41.2194 71.1107L50.0341 66.3193Z" fill="#A2AEE6"/>
<path d="M29.9656 66.3194L21.1512 61.5282L5.81501 89.7423C5.35368 90.5909 5.95309 91.6273 6.91872 91.6507L15.414 91.8564C15.8297 91.8665 16.215 92.0759 16.4496 92.4193L21.2424 99.4367C21.7871 100.234 22.9828 100.174 23.4441 99.3249L38.7803 71.1108L29.9656 66.3194Z" fill="#A2AEE6"/>
<path d="M73.0815 91.6511L70.0885 91.7234L54.8547 63.7005L58.8494 61.5284L74.1858 89.742C74.6471 90.5912 74.0469 91.6271 73.0815 91.6511Z" fill="#8795DE"/>
<path d="M38.7797 71.1097L23.4435 99.3252C22.9838 100.174 21.7875 100.235 21.2435 99.4355L19.3988 96.7336C19.4951 96.6432 19.5775 96.535 19.6457 96.4103L34.6246 68.8513L38.7797 71.1097Z" fill="#8795DE"/>
<path d="M40 78.6321C61.7137 78.6321 79.3161 61.0297 79.3161 39.3161C79.3161 17.6024 61.7137 0 40 0C18.2864 0 0.68396 17.6024 0.68396 39.3161C0.68396 61.0297 18.2864 78.6321 40 78.6321Z" fill="#FEA613"/>
<path d="M79.3161 39.3151C79.3161 61.0288 61.7135 78.6314 39.9998 78.6314C34.4676 78.6314 29.2022 77.4892 24.4268 75.4257C28.1203 76.5759 32.0467 77.1943 36.1176 77.1943C57.8313 77.1943 75.4339 59.5917 75.4339 37.878C75.4339 21.6987 65.66 7.80177 51.6948 1.76953C67.6975 6.74766 79.3161 21.6744 79.3161 39.3151Z" fill="#FB8801"/>
<path d="M40 70.2561C57.0878 70.2561 70.9401 56.4038 70.9401 39.3161C70.9401 22.2283 57.0878 8.37598 40 8.37598C22.9123 8.37598 9.05994 22.2283 9.05994 39.3161C9.05994 56.4038 22.9123 70.2561 40 70.2561Z" fill="#FEE45A"/>
<path d="M70.9393 39.315C70.9393 56.4037 57.0885 70.2565 39.9998 70.2565C34.2486 70.2565 28.8629 68.6868 24.25 65.9528C27.9033 67.4723 31.9121 68.3114 36.1176 68.3114C53.2063 68.3114 67.059 54.4586 67.059 37.3719C67.059 26.0342 60.9606 16.1199 51.8653 10.7322C63.0645 15.3873 70.9393 26.4318 70.9393 39.315Z" fill="#FED402"/>
<path d="M36.5438 34.1397C37.3733 34.1397 38.046 33.4672 38.046 32.6375C38.046 31.8078 37.3735 31.1354 36.5438 31.1354H30.8956C30.0661 31.1354 29.3934 31.8078 29.3934 32.6375V46.0426C29.3934 46.8723 30.0659 47.5448 30.8956 47.5448H36.5438C37.3733 47.5448 38.046 46.8723 38.046 46.0426C38.046 45.2129 37.3735 44.5405 36.5438 44.5405H32.3975V40.8422H36.1272C36.9567 40.8422 37.6294 40.1698 37.6294 39.3401C37.6294 38.5104 36.9569 37.8379 36.1272 37.8379H32.3975V34.1397H36.5438Z" fill="#FEA613"/>
<path d="M24.3089 38.3385C24.8369 37.5881 25.1482 36.675 25.1482 35.6899C25.1482 33.1451 23.0779 31.0748 20.5332 31.0748H16.6035C15.774 31.0748 15.1013 31.7473 15.1013 32.577V46.1055C15.1013 46.5051 15.2605 46.8881 15.5437 47.1702C15.8253 47.4504 16.2064 47.6077 16.6035 47.6077H16.6101C16.6101 47.6077 20.2236 47.5917 21.2195 47.5917C24.0556 47.5917 26.3631 45.2842 26.3631 42.4481C26.3631 40.7704 25.5554 39.278 24.3089 38.3385ZM18.1054 34.0789H20.533C21.4212 34.0789 22.1439 34.8016 22.1439 35.6899C22.1439 36.5782 21.4212 37.3004 20.533 37.3004C20.2435 37.3004 18.1054 37.3041 18.1054 37.3041V34.0789ZM21.2193 44.5874C20.6492 44.5874 19.224 44.5926 18.1054 44.5971V40.3123C18.4308 40.311 21.2193 40.3084 21.2193 40.3084C22.399 40.3084 23.3588 41.2682 23.3588 42.4479C23.3588 43.6276 22.399 44.5874 21.2193 44.5874Z" fill="#FEA613"/>
<path d="M48.571 38.0374C47.1087 37.4981 45.7573 36.9268 45.0815 36.634C44.8739 36.544 44.7142 36.4256 44.6202 36.2917C44.4122 35.9948 44.3647 35.5952 44.4936 35.2227C44.6556 34.7551 45.064 34.4012 45.6435 34.2268C47.6511 33.6223 49.4909 35.0821 49.5407 35.1221C50.1755 35.6499 51.1183 35.5661 51.6503 34.9333C52.1841 34.2981 52.1021 33.3506 51.4671 32.8168C51.3425 32.7124 48.3765 30.2665 44.7771 31.35C43.2716 31.8036 42.1337 32.8569 41.655 34.2397C41.2114 35.5204 41.4003 36.9321 42.1606 38.0165C42.5737 38.6051 43.171 39.0805 43.8878 39.3909C44.5917 39.6958 46.0013 40.2917 47.5315 40.8561C48.1694 41.0915 49.6306 41.7624 49.4261 42.9087C49.2774 43.7413 48.2833 44.6026 46.8769 44.6026C45.4798 44.6026 44.1333 44.0374 43.2755 43.0907C42.7183 42.4758 41.7683 42.4296 41.1538 42.9862C40.5391 43.5432 40.4923 44.4932 41.0493 45.1079C42.4671 46.6725 44.6458 47.6067 46.8769 47.6067C49.6362 47.6067 51.9521 45.8528 52.3835 43.4366C52.7067 41.6253 51.8751 39.2561 48.571 38.0374Z" fill="#FEA613"/>
<path d="M54.4232 32.5761C54.4232 33.4058 55.0956 34.0782 55.9253 34.0782H58.1439V46.1046C58.1439 46.9343 58.8163 47.6068 59.646 47.6068C60.4757 47.6068 61.1482 46.9343 61.1482 46.1046V34.078H63.3966C64.2263 34.078 64.8988 33.4056 64.8988 32.5759C64.8988 31.7462 64.2263 31.0737 63.3966 31.0737H55.9253C55.0956 31.0739 54.4232 31.7464 54.4232 32.5761Z" fill="#FEA613"/>
</svg>
