<svg width="100" height="100" viewBox="0 0 100 100" fill="none" xmlns="http://www.w3.org/2000/svg">
<path d="M100 50C100 46.2799 98.1322 42.9967 95.2834 41.0357C93.3756 39.7225 92.7031 37.2127 93.6986 35.1215C95.1853 31.9988 95.1611 28.2217 93.3012 25C91.4412 21.7783 88.182 19.8687 84.7344 19.5949C82.4256 19.4115 80.5883 17.5742 80.4049 15.2654C80.1312 11.8178 78.2217 8.55879 75 6.69863C71.7781 4.83848 68.0012 4.81445 64.8785 6.30117C62.7873 7.29668 60.2775 6.62422 58.9645 4.71641C57.0033 1.86777 53.7201 0 50 0C46.2799 0 42.9967 1.86777 41.0357 4.7166C39.7225 6.62441 37.2129 7.29688 35.1217 6.30137C31.999 4.81484 28.2219 4.83887 25.0002 6.69883C21.7785 8.55898 19.8689 11.818 19.5951 15.2656C19.4117 17.5744 17.5744 19.4117 15.2656 19.5951C11.818 19.8688 8.55879 21.7783 6.69883 25C4.83867 28.2219 4.81465 31.9988 6.30137 35.1215C7.29688 37.2127 6.62441 39.7225 4.7166 41.0357C1.86777 42.9967 0 46.2799 0 50C0 53.7201 1.86777 57.0033 4.7166 58.9643C6.62441 60.2775 7.29688 62.7873 6.30137 64.8785C4.81465 68.0012 4.83887 71.7783 6.69883 75C8.55898 78.2219 11.818 80.1312 15.2656 80.4051C17.5744 80.5885 19.4117 82.4258 19.5951 84.7346C19.8689 88.1822 21.7783 91.4412 25.0002 93.3014C28.2219 95.1615 31.999 95.1855 35.1217 93.6988C37.2129 92.7033 39.7227 93.3758 41.0359 95.2836C42.9967 98.1322 46.2799 100 50 100C53.7201 100 57.0033 98.1322 58.9643 95.2836C60.2775 93.3758 62.7873 92.7033 64.8785 93.6988C68.0012 95.1855 71.7783 95.1613 75 93.3014C78.2217 91.4412 80.1312 88.1822 80.4051 84.7346C80.5885 82.4258 82.4258 80.5885 84.7346 80.4051C88.1822 80.1312 91.4412 78.2219 93.3014 75C95.1615 71.7781 95.1855 68.0012 93.6988 64.8785C92.7033 62.7873 93.3758 60.2775 95.2836 58.9643C98.1322 57.0033 100 53.7201 100 50Z" fill="#FEE45A"/>
<path d="M95.2831 41.0354C93.3762 39.7228 92.7038 37.2138 93.6995 35.1222C95.1848 31.9989 95.1608 28.2214 93.302 24.9997C91.6018 22.0571 88.7356 20.2085 85.6245 19.7026C87.0938 20.6159 88.3643 21.8944 89.2875 23.4942C89.9096 24.5722 90.3424 25.7573 90.5659 26.9815C90.994 29.3263 90.527 31.5888 89.6174 33.7688C89.4186 34.2456 89.2782 34.7351 89.1602 35.237C88.5805 37.7062 89.8086 40.5392 91.6543 42.2415C92.5827 43.0978 93.5672 43.9056 94.3842 44.8739C95.6971 46.43 96.1602 48.1788 95.8569 50.2071C95.4225 53.1116 93.6766 55.8009 91.2686 57.4585C89.3618 58.7712 88.6893 61.2821 89.685 63.3737C91.1704 66.495 91.1463 70.2726 89.2875 73.4942C86.8295 77.7546 81.2645 75.9968 78.2237 79.1198C77.1536 80.2188 76.5118 81.705 76.3911 83.2296C76.2409 85.1276 75.5803 86.9868 74.5038 88.5515C73.8788 89.4593 72.9776 90.1345 71.9653 90.5567C69.7985 91.4606 67.3155 90.7446 65.1293 90.3081C62.5897 89.8011 60.0696 89.8345 57.7827 91.1687C56.6653 91.8204 55.6838 92.7105 54.9499 93.7773C52.9887 96.6274 49.7049 98.4942 45.9856 98.4942C45.3934 98.4942 44.8133 98.446 44.2473 98.3558C45.9172 99.3976 47.8883 99.9997 50 99.9997C53.7194 99.9997 57.0032 98.1329 58.9643 95.2827C60.277 93.3759 62.7881 92.7034 64.8776 93.6989C68.0008 95.1862 71.7784 95.1622 75 93.3015C78.2217 91.4407 80.1305 88.1831 80.4055 84.7347C80.5881 82.4263 82.4249 80.5878 84.735 80.405C88.1815 80.1319 91.4411 78.2212 93.3018 74.9995C95.1604 71.7778 95.1846 68.0003 93.6993 64.879C92.7038 62.7874 93.376 60.2765 95.2829 58.9638C98.1333 57.0028 100 53.721 100 49.9997C100 46.2802 98.1332 42.9964 95.2831 41.0354Z" fill="#FED402"/>
<path d="M50 84.7102C69.1956 84.7102 84.7567 69.1491 84.7567 49.9535C84.7567 30.758 69.1956 15.1969 50 15.1969C30.8045 15.1969 15.2434 30.758 15.2434 49.9535C15.2434 69.1491 30.8045 84.7102 50 84.7102Z" fill="#FAF7F7"/>
<path d="M84.7568 49.9536C84.7568 69.1487 69.1949 84.7106 49.9998 84.7106C43.8275 84.7106 38.0348 83.1028 33.0107 80.2827C37.0051 81.8845 41.3687 82.7655 45.9352 82.7655C65.1303 82.7655 80.6922 67.2056 80.6922 48.0105C80.6922 34.9796 73.5225 23.6247 62.9123 17.6753C75.7143 22.7999 84.7568 35.321 84.7568 49.9536Z" fill="#EDE1DD"/>
<path d="M44.7576 66.8795C44.7467 66.8795 44.7361 66.8795 44.725 66.8793C43.2608 66.8699 41.8727 66.226 40.9197 65.1142L30.7955 53.3027C28.9789 51.1834 29.2242 47.9924 31.3438 46.1756C33.4631 44.3588 36.6541 44.6045 38.4709 46.7238L44.8067 54.1156L61.5711 34.7435C63.4149 32.6475 66.6086 32.4432 68.7047 34.2865C70.8008 36.1303 71.0053 39.324 69.1617 41.4201L48.5527 65.1633C47.5928 66.2547 46.21 66.8795 44.7576 66.8795Z" fill="#A2AEE6"/>
<path d="M69.1609 41.4209L48.5527 65.1643C47.5934 66.2541 46.2104 66.8805 44.757 66.8805C44.7471 66.8805 44.7369 66.8805 44.725 66.8785C43.2617 66.8705 41.8727 66.2262 40.9193 65.1141L39.8936 63.9178C40.2568 64.0041 40.6322 64.0502 41.0135 64.0522H41.0455C42.4988 64.0522 43.8816 63.428 44.8412 62.336L65.4514 38.5926C66.8223 37.0331 67.0592 34.8672 66.2281 33.1008C67.1174 33.2534 67.9785 33.6467 68.7051 34.2872C70.8008 36.1299 71.0057 39.3254 69.1609 41.4209Z" fill="#8795DE"/>
</svg>
