<svg width="100" height="100" viewBox="0 0 100 100" fill="none" xmlns="http://www.w3.org/2000/svg">
<g clip-path="url(#clip0)">
<path d="M87.078 68.1198C86.8087 58.3374 82.7346 49.4339 76.2298 42.9275H76.229C69.3 36 59.9273 32.0625 49.9999 32.0625C40.3762 32.0625 30.9013 35.7963 23.7701 42.9275C16.8258 49.8726 13.1774 58.9477 12.9218 68.1221C12.9081 68.6149 12.4999 69.0056 12.0071 69.0056H87.992C87.4984 69.0048 87.0918 68.6134 87.078 68.1198Z" fill="#E4EAF8"/>
<path d="M30.6121 43.3456C36.9048 36.8103 45.0233 33.0246 53.4576 32.225C52.3147 32.1182 51.1611 32.0625 49.9999 32.0625C40.3762 32.0625 30.9013 35.7963 23.7701 42.9268C16.8258 49.8726 13.1774 58.947 12.9218 68.1213C12.9081 68.6142 12.4999 69.0048 12.0071 69.0048H19.7822C20.1515 59.6496 23.7907 50.431 30.6121 43.3456Z" fill="#D8DCE5"/>
<path d="M85.3638 33.7899C75.9613 24.3913 63.3034 19.1407 50 19.1407V32.7417C59.745 32.7417 68.9453 36.6067 75.7469 43.4068L85.3638 33.7899Z" fill="#FECA57"/>
<path d="M14.6355 33.7892L24.2531 43.4068C31.0921 36.5678 40.3138 32.7417 50 32.7417V19.1407C37.4024 19.1407 25.1526 23.6482 14.6355 33.7892Z" fill="#15BA8B"/>
<path d="M14.6355 33.7892L24.2531 43.4068C31.0921 36.5678 40.3138 32.7417 50 32.7417V19.1407C37.4024 19.1407 25.1526 23.6482 14.6355 33.7892Z" fill="#15BA8B"/>
<path d="M-3.73057e-05 68.0809C-0.0107185 68.5867 0.39364 69.0048 0.899468 69.0048H12.706C13.1897 69.0048 13.5902 68.6218 13.6039 68.1381C13.8542 59.1316 17.4362 50.2243 24.253 43.4067L14.6354 33.7891C5.5946 42.8299 0.27691 55.024 -3.73057e-05 68.0809Z" fill="#54A0FF"/>
<path d="M20.8306 33.4078C29.3503 25.1924 38.9962 20.6377 49.0456 19.1515C36.7844 19.3743 24.8871 23.9046 14.6355 33.7892L17.6941 36.8479C18.6837 35.6584 19.7296 34.5095 20.8306 33.4078Z" fill="#11AA7B"/>
<path d="M6.94653 69.0048C6.43459 69.0048 6.02566 68.5822 6.0371 68.071C6.28277 56.4629 10.4721 45.5315 17.6941 36.8477L14.6354 33.7891C5.5946 42.8299 0.27691 55.024 -3.73057e-05 68.0809C-0.0107185 68.5867 0.39364 69.0048 0.899468 69.0048H12.706H6.94653Z" fill="#338DEF"/>
<path d="M85.3644 33.7891L75.7468 43.4067C82.1334 49.794 86.132 58.5335 86.3959 68.1366C86.4097 68.6211 86.8095 69.0048 87.2939 69.0048H99.1004C99.6063 69.0048 100.011 68.5875 99.9999 68.0809C99.7276 55.3452 94.6189 43.0405 85.3644 33.7891Z" fill="#FF6B6B"/>
<path d="M64.6988 70.7527L72.0032 47.1184C72.3053 46.1395 71.3883 45.2225 70.4102 45.5246L46.7751 52.829C36.4647 56.0158 33.2428 69.0239 40.8737 76.654C48.5047 84.2849 61.512 81.063 64.6988 70.7527Z" fill="#FF6B6B"/>
<path d="M46.9101 76.6542C39.2792 69.024 42.5019 56.0159 52.8122 52.8291L72.0505 46.8835C72.1543 46 71.3097 45.247 70.4102 45.5247L46.7751 52.8291C36.4647 56.0159 33.2428 69.024 40.8737 76.6542C44.561 80.3415 49.5034 81.4943 53.9864 80.5383C51.4351 79.989 48.9754 78.7202 46.9101 76.6542Z" fill="#EE5253"/>
<path d="M55.171 62.3557C52.7701 59.9539 48.8768 59.9539 46.475 62.3557C44.0741 64.7567 44.0741 68.6499 46.475 71.0517C48.8768 73.4526 52.7701 73.4526 55.171 71.0517C57.5728 68.6499 57.5728 64.7567 55.171 62.3557Z" fill="#EE5253"/>
<path d="M53.8984 61.3777C51.547 60.0181 48.4884 60.3439 46.4758 62.3558C44.0748 64.7567 44.0748 68.6508 46.4758 71.0518C48.4876 73.0636 51.547 73.3886 53.8984 72.0298C49.7869 69.6525 49.8205 63.7359 53.8984 61.3777Z" fill="#D83941"/>
</g>
<defs>
<clipPath id="clip0">
<rect width="100" height="100" fill="white"/>
</clipPath>
</defs>
</svg>
