<svg width="160" height="55" viewBox="0 0 160 55" fill="none" xmlns="http://www.w3.org/2000/svg">
<path d="M41.2824 12.2125L23.2947 12.2125C23.2947 5.62851 20.3952 2.27905 14.9248 1.30755M41.2824 12.2125H61.1749C61.1749 8.54315 59.1857 2.279 51.726 1.30756C51.139 1.23112 50.7314 1.25845 50.234 1.30712M41.2824 12.2125C41.6653 19.4545 45.6745 22.6825 51.0355 28.4761C55.3441 33.1326 63.4592 42.174 57.2048 49.8299C54.9775 52.5563 52.1453 53.768 49.0783 53.768M41.2824 12.2125C40.7851 6.16458 45.2609 1.79285 50.234 1.30712M11.9409 53.768C11.9409 53.768 12.1896 53.768 11.8495 53.768C3.27202 53.768 0.999999 46.9676 1 41.5946H39.0134C39.0134 41.5946 37.8012 44.0531 39.7905 47.9391C41.7797 51.8251 46.2312 53.768 49.0783 53.768M11.9409 53.768C16.914 53.768 22.8818 48.4248 21.5503 41.5946C21.2544 40.0768 20.996 39.2362 20.4441 37.7874C18.7418 33.3191 13.3812 28.6003 10.02 25.3724C6.65877 22.1445 3.255 16.5474 3.255 10.433C3.255 5.64267 6.47045 1.79331 12.4382 1.30761C13.0571 1.25724 14.4142 1.30755 14.9248 1.30755M11.9409 53.768C11.9409 53.768 36.2856 53.768 49.0783 53.768M14.9248 1.30755C15.4353 1.30755 38.8797 1.32655 50.234 1.30712" stroke="#5200D7" stroke-width="2" stroke-linejoin="round"/>
<path d="M73.32 5.61H66.12V3H83.49V5.61H76.29V24H73.32V5.61ZM91.4778 7.95C93.6778 7.95 95.3578 8.49 96.5178 9.57C97.6978 10.65 98.2878 12.26 98.2878 14.4V24H95.5578V21.9C95.0778 22.64 94.3878 23.21 93.4878 23.61C92.6078 23.99 91.5578 24.18 90.3378 24.18C88.5578 24.18 87.1278 23.75 86.0478 22.89C84.9878 22.03 84.4578 20.9 84.4578 19.5C84.4578 18.1 84.9678 16.98 85.9878 16.14C87.0078 15.28 88.6278 14.85 90.8478 14.85H95.4078V14.28C95.4078 13.04 95.0478 12.09 94.3278 11.43C93.6078 10.77 92.5478 10.44 91.1478 10.44C90.2078 10.44 89.2878 10.6 88.3878 10.92C87.4878 11.22 86.7278 11.63 86.1078 12.15L84.9078 9.99C85.7278 9.33 86.7078 8.83 87.8478 8.49C88.9878 8.13 90.1978 7.95 91.4778 7.95ZM90.8178 21.96C91.9178 21.96 92.8678 21.72 93.6678 21.24C94.4678 20.74 95.0478 20.04 95.4078 19.14V16.92H90.9678C88.5278 16.92 87.3078 17.74 87.3078 19.38C87.3078 20.18 87.6178 20.81 88.2378 21.27C88.8578 21.73 89.7178 21.96 90.8178 21.96ZM103.818 1.74H106.698V24H103.818V1.74ZM118.576 16.59L115.276 19.65V24H112.396V1.74H115.276V16.02L123.946 8.1H127.426L120.736 14.67L128.086 24H124.546L118.576 16.59ZM75.27 54.24C73.69 54.24 72.16 54 70.68 53.52C69.22 53.02 68.07 52.38 67.23 51.6L68.34 49.26C69.14 49.98 70.16 50.57 71.4 51.03C72.66 51.47 73.95 51.69 75.27 51.69C77.01 51.69 78.31 51.4 79.17 50.82C80.03 50.22 80.46 49.43 80.46 48.45C80.46 47.73 80.22 47.15 79.74 46.71C79.28 46.25 78.7 45.9 78 45.66C77.32 45.42 76.35 45.15 75.09 44.85C73.51 44.47 72.23 44.09 71.25 43.71C70.29 43.33 69.46 42.75 68.76 41.97C68.08 41.17 67.74 40.1 67.74 38.76C67.74 37.64 68.03 36.63 68.61 35.73C69.21 34.83 70.11 34.11 71.31 33.57C72.51 33.03 74 32.76 75.78 32.76C77.02 32.76 78.24 32.92 79.44 33.24C80.64 33.56 81.67 34.02 82.53 34.62L81.54 37.02C80.66 36.46 79.72 36.04 78.72 35.76C77.72 35.46 76.74 35.31 75.78 35.31C74.08 35.31 72.8 35.62 71.94 36.24C71.1 36.86 70.68 37.66 70.68 38.64C70.68 39.36 70.92 39.95 71.4 40.41C71.88 40.85 72.47 41.2 73.17 41.46C73.89 41.7 74.86 41.96 76.08 42.24C77.66 42.62 78.93 43 79.89 43.38C80.85 43.76 81.67 44.34 82.35 45.12C83.05 45.9 83.4 46.95 83.4 48.27C83.4 49.37 83.1 50.38 82.5 51.3C81.9 52.2 80.99 52.92 79.77 53.46C78.55 53.98 77.05 54.24 75.27 54.24ZM94.3728 54.18C92.7928 54.18 91.3728 53.83 90.1128 53.13C88.8528 52.43 87.8628 51.47 87.1428 50.25C86.4428 49.01 86.0928 47.61 86.0928 46.05C86.0928 44.49 86.4428 43.1 87.1428 41.88C87.8628 40.64 88.8528 39.68 90.1128 39C91.3728 38.3 92.7928 37.95 94.3728 37.95C95.9528 37.95 97.3628 38.3 98.6028 39C99.8628 39.68 100.843 40.64 101.543 41.88C102.263 43.1 102.623 44.49 102.623 46.05C102.623 47.61 102.263 49.01 101.543 50.25C100.843 51.47 99.8628 52.43 98.6028 53.13C97.3628 53.83 95.9528 54.18 94.3728 54.18ZM94.3728 51.66C95.3928 51.66 96.3028 51.43 97.1028 50.97C97.9228 50.49 98.5628 49.83 99.0228 48.99C99.4828 48.13 99.7128 47.15 99.7128 46.05C99.7128 44.95 99.4828 43.98 99.0228 43.14C98.5628 42.28 97.9228 41.62 97.1028 41.16C96.3028 40.7 95.3928 40.47 94.3728 40.47C93.3528 40.47 92.4328 40.7 91.6128 41.16C90.8128 41.62 90.1728 42.28 89.6928 43.14C89.2328 43.98 89.0028 44.95 89.0028 46.05C89.0028 47.15 89.2328 48.13 89.6928 48.99C90.1728 49.83 90.8128 50.49 91.6128 50.97C92.4328 51.43 93.3528 51.66 94.3728 51.66ZM106.806 31.74H109.686V54H106.806V31.74ZM129.455 38.1L122.495 54H119.555L112.595 38.1H115.595L121.055 50.85L126.635 38.1H129.455ZM146.273 46.14C146.273 46.36 146.253 46.65 146.213 47.01H133.313C133.493 48.41 134.103 49.54 135.143 50.4C136.203 51.24 137.513 51.66 139.073 51.66C140.973 51.66 142.503 51.02 143.663 49.74L145.253 51.6C144.533 52.44 143.633 53.08 142.553 53.52C141.493 53.96 140.303 54.18 138.983 54.18C137.303 54.18 135.813 53.84 134.513 53.16C133.213 52.46 132.203 51.49 131.483 50.25C130.783 49.01 130.433 47.61 130.433 46.05C130.433 44.51 130.773 43.12 131.453 41.88C132.153 40.64 133.103 39.68 134.303 39C135.523 38.3 136.893 37.95 138.413 37.95C139.933 37.95 141.283 38.3 142.463 39C143.663 39.68 144.593 40.64 145.253 41.88C145.933 43.12 146.273 44.54 146.273 46.14ZM138.413 40.38C137.033 40.38 135.873 40.8 134.933 41.64C134.013 42.48 133.473 43.58 133.313 44.94H143.513C143.353 43.6 142.803 42.51 141.863 41.67C140.943 40.81 139.793 40.38 138.413 40.38ZM153.232 40.77C153.732 39.85 154.472 39.15 155.452 38.67C156.432 38.19 157.622 37.95 159.022 37.95V40.74C158.862 40.72 158.642 40.71 158.362 40.71C156.802 40.71 155.572 41.18 154.672 42.12C153.792 43.04 153.352 44.36 153.352 46.08V54H150.472V38.1H153.232V40.77Z" fill="#5200D7"/>
</svg>
