<svg width="100" height="100" viewBox="0 0 100 100" fill="none" xmlns="http://www.w3.org/2000/svg">
<g clip-path="url(#clip0)">
<path d="M89.0947 10.4198C69.1853 9.85217 55.9594 3.04905 51.5877 0.438306C50.609 -0.146265 49.3912 -0.146265 48.4125 0.438306C44.0406 3.04905 30.8146 9.85217 10.9055 10.4198C9.35565 10.4639 8.0744 11.6426 7.91717 13.185C6.58241 26.2686 3.60702 82.6684 48.9021 99.7994C49.6092 100.067 50.391 100.067 51.0978 99.7994C96.3932 82.6684 93.4176 26.2686 92.0828 13.185C91.9256 11.6426 90.6443 10.4639 89.0947 10.4198Z" fill="#A2AEE6"/>
<path d="M51.0988 99.8004C50.8034 99.911 50.4941 99.9772 50.1827 99.9954C92.0949 80.8743 89.2323 25.1944 87.9308 12.0292C87.8685 11.3905 87.6234 10.8139 87.2538 10.3479C87.8605 10.378 88.4732 10.4022 89.0939 10.4202C90.6447 10.4643 91.9261 11.6434 92.0829 13.1842C93.4187 26.269 96.3935 82.668 51.0988 99.8004Z" fill="#8795DE"/>
<path d="M81.0739 17.6308C65.2495 17.1796 54.7368 11.7724 51.262 9.69736C50.484 9.23271 49.5161 9.23271 48.7381 9.69736C45.2633 11.7724 34.7508 17.1798 18.9262 17.6308C17.6944 17.6659 16.676 18.6028 16.551 19.8288C15.4903 30.2278 13.1253 76.8757 49.1274 90.4921C49.6893 90.7046 50.3108 90.7046 50.8727 90.4921C86.8749 76.8757 84.5098 30.2278 83.4491 19.8286C83.3239 18.6026 82.3055 17.6657 81.0739 17.6308Z" fill="#FAF7F7"/>
<path d="M50.8718 90.492C50.3115 90.7049 49.6886 90.7049 49.1283 90.492C48.7406 90.3453 48.357 90.1947 47.9773 90.0381C82.5697 75.509 80.5388 28.6936 79.4781 17.5693C80.0023 17.5955 80.5347 17.6156 81.073 17.6316C82.3064 17.6658 83.3248 18.6018 83.4494 19.8293C84.5099 30.2281 86.8742 76.8748 50.8718 90.492Z" fill="#EDE1DD"/>
<path d="M49.9998 67.6901C60.8803 67.6901 69.7006 58.8698 69.7006 47.9894C69.7006 37.1089 60.8803 28.2886 49.9998 28.2886C39.1194 28.2886 30.2991 37.1089 30.2991 47.9894C30.2991 58.8698 39.1194 67.6901 49.9998 67.6901Z" fill="#FEE45A"/>
<path d="M69.7014 47.9892C69.7014 58.8705 60.881 67.6908 49.9998 67.6908C45.8076 67.6908 41.9226 66.381 38.7289 64.1474C41.0469 65.1076 43.5859 65.6359 46.2496 65.6359C57.1308 65.6359 65.9512 56.8156 65.9512 45.9343C65.9512 39.2453 62.6168 33.3335 57.5166 29.7742C64.6695 32.7269 69.7014 39.7695 69.7014 47.9892Z" fill="#FED402"/>
<path d="M47.2513 57.0657C46.4208 57.0657 45.6214 56.7434 45.0226 56.1647L39.6815 51.0026C38.4081 49.7718 38.3735 47.7413 39.6042 46.4679C40.8351 45.1944 42.8649 45.1593 44.1392 46.3905L47.1208 49.2722L55.7327 39.9446C56.9341 38.6433 58.9632 38.5622 60.2646 39.7638C61.5657 40.9653 61.6468 42.9944 60.4452 44.2956L49.6075 56.0341C49.022 56.6684 48.2054 57.0397 47.3425 57.0643C47.3122 57.0653 47.2817 57.0657 47.2513 57.0657Z" fill="#A2AEE6"/>
<path d="M60.4455 44.2951L49.6084 56.0341C49.0218 56.6689 48.2062 57.0406 47.3425 57.0646H47.2521C46.4205 57.0646 45.621 56.7431 45.0224 56.1646L42.7605 53.979C43.3048 54.3687 43.9578 54.5796 44.6306 54.5796C44.6607 54.5796 44.691 54.5796 44.723 54.5777C45.5847 54.5537 46.4023 54.182 46.9869 53.5472L57.824 41.8103C58.5613 41.0128 58.8164 39.9402 58.6013 38.9539C59.2039 39.0503 59.7845 39.3195 60.2646 39.7634C61.5664 40.9648 61.6468 42.9935 60.4455 44.2951Z" fill="#8795DE"/>
</g>
<defs>
<clipPath id="clip0">
<rect width="100" height="100" fill="white"/>
</clipPath>
</defs>
</svg>
