<svg width="100" height="100" viewBox="0 0 100 100" fill="none" xmlns="http://www.w3.org/2000/svg">
<path d="M100 50C100 46.2799 98.1322 42.9967 95.2834 41.0357C93.3756 39.7225 92.7031 37.2127 93.6986 35.1215C95.1853 31.9988 95.1611 28.2217 93.3012 25C91.4412 21.7783 88.182 19.8687 84.7344 19.5949C82.4256 19.4115 80.5883 17.5742 80.4049 15.2654C80.1312 11.8178 78.2217 8.55879 75 6.69863C71.7781 4.83848 68.0012 4.81445 64.8785 6.30117C62.7873 7.29668 60.2775 6.62422 58.9645 4.71641C57.0033 1.86777 53.7201 0 50 0C46.2799 0 42.9967 1.86777 41.0357 4.7166C39.7225 6.62441 37.2129 7.29688 35.1217 6.30137C31.999 4.81484 28.2219 4.83887 25.0002 6.69883C21.7785 8.55898 19.8689 11.818 19.5951 15.2656C19.4117 17.5744 17.5744 19.4117 15.2656 19.5951C11.818 19.8688 8.55879 21.7783 6.69883 25C4.83867 28.2219 4.81465 31.9988 6.30137 35.1215C7.29688 37.2127 6.62441 39.7225 4.7166 41.0357C1.86777 42.9967 0 46.2799 0 50C0 53.7201 1.86777 57.0033 4.7166 58.9643C6.62441 60.2775 7.29688 62.7873 6.30137 64.8785C4.81465 68.0012 4.83887 71.7783 6.69883 75C8.55898 78.2219 11.818 80.1312 15.2656 80.4051C17.5744 80.5885 19.4117 82.4258 19.5951 84.7346C19.8689 88.1822 21.7783 91.4412 25.0002 93.3014C28.2219 95.1615 31.999 95.1855 35.1217 93.6988C37.2129 92.7033 39.7227 93.3758 41.0359 95.2836C42.9967 98.1322 46.2799 100 50 100C53.7201 100 57.0033 98.1322 58.9643 95.2836C60.2775 93.3758 62.7873 92.7033 64.8785 93.6988C68.0012 95.1855 71.7783 95.1613 75 93.3014C78.2217 91.4412 80.1312 88.1822 80.4051 84.7346C80.5885 82.4258 82.4258 80.5885 84.7346 80.4051C88.1822 80.1312 91.4412 78.2219 93.3014 75C95.1615 71.7781 95.1855 68.0012 93.6988 64.8785C92.7033 62.7873 93.3758 60.2775 95.2836 58.9643C98.1322 57.0033 100 53.7201 100 50Z" fill="#A2AEE6"/>
<path d="M95.2831 41.0356C93.3762 39.7229 92.7038 37.2139 93.6995 35.1223C95.1848 31.999 95.1608 28.2215 93.302 24.9998C91.6018 22.0573 88.7356 20.2086 85.6245 19.7028C87.0938 20.616 88.3643 21.8946 89.2876 23.4944C89.9096 24.5723 90.3424 25.7574 90.5659 26.9817C90.994 29.3264 90.527 31.5889 89.6174 33.769C89.4186 34.2457 89.2782 34.7352 89.1602 35.2371C88.5805 37.7063 89.8086 40.5393 91.6544 42.2416C92.5827 43.0979 93.5672 43.9057 94.3842 44.8741C95.6971 46.4301 96.1602 48.1789 95.8569 50.2073C95.4225 53.1117 93.6766 55.801 91.2686 57.4586C89.3618 58.7713 88.6893 61.2823 89.685 63.3739C91.1704 66.4951 91.1463 70.2727 89.2876 73.4944C86.8295 77.7547 81.2645 75.9969 78.2237 79.1199C77.1536 80.219 76.5118 81.7051 76.3911 83.2297C76.2409 85.1278 75.5803 86.9869 74.5038 88.5516C73.8788 89.4594 72.9776 90.1346 71.9653 90.5569C69.7985 91.4608 67.3155 90.7448 65.1293 90.3082C62.5897 89.8012 60.0696 89.8346 57.7827 91.1688C56.6653 91.8205 55.6838 92.7106 54.9499 93.7774C52.9887 96.6276 49.7049 98.4944 45.9856 98.4944C45.3934 98.4944 44.8133 98.4461 44.2473 98.3559C45.9172 99.3977 47.8883 99.9998 50 99.9998C53.7194 99.9998 57.0032 98.133 58.9643 95.2828C60.277 93.376 62.7881 92.7035 64.8776 93.6991C68.0008 95.1864 71.7784 95.1623 75.0001 93.3016C78.2217 91.4408 80.1305 88.1832 80.4055 84.7348C80.5881 82.4264 82.4249 80.5879 84.735 80.4051C88.1815 80.1321 91.4411 78.2213 93.3018 74.9996C95.1604 71.778 95.1846 68.0004 93.6993 64.8791C92.7038 62.7875 93.376 60.2766 95.2829 58.9639C98.1333 57.003 100 53.7211 100 49.9998C100 46.2803 98.1333 42.9965 95.2831 41.0356Z" fill="#8795DE"/>
<path d="M48.8886 20.3231C48.7332 20.6948 48.6472 21.1031 48.6472 21.5313C48.6451 40.0502 33.6208 43.6766 33.6208 43.6766V69.0834L37.3888 71.3135C42.0412 74.067 47.3478 75.5198 52.7539 75.5198H68.764C71.4535 75.5198 73.6337 73.3395 73.6337 70.65C73.6337 67.9606 71.4535 65.7803 68.764 65.7803H72.3185C75.008 65.7803 77.1882 63.6 77.1882 60.9106C77.1882 58.2211 75.008 56.0408 72.3185 56.0408H75.055C77.7445 56.0408 79.9248 53.8606 79.9248 51.1711C79.9248 48.4817 77.7445 46.3014 75.055 46.3014H72.3185C75.0669 46.3014 77.2835 44.0244 77.1849 41.2541C77.091 38.6153 74.8421 36.5621 72.2017 36.5621H61.7826C60.0033 36.5621 58.7371 34.8186 59.3025 33.1315C59.9105 31.3168 60.2712 29.6987 60.4501 28.2621C61.1011 23.0328 57.0031 18.4225 51.7333 18.4225C50.4488 18.4231 49.3552 19.208 48.8886 20.3231Z" fill="#FFCEBF"/>
<path d="M61.7824 36.5634H57.3685C55.5881 36.5634 54.3236 34.8191 54.8877 33.131C55.4959 31.3165 55.8572 29.6988 56.0357 28.2634C56.5656 24.0081 53.9521 20.1663 50.1224 18.8796C50.5902 18.5906 51.1422 18.424 51.7343 18.424C57.0033 18.424 61.1021 23.0325 60.4498 28.2634C60.2711 29.6986 59.9099 31.3163 59.3037 33.131C58.7375 34.8191 60.0041 36.5634 61.7824 36.5634Z" fill="#FFB09E"/>
<path d="M80.7678 51.1723C80.7596 52.4 80.2685 53.7028 79.3945 54.5785C78.4769 55.4977 77.2088 56.0418 75.9033 56.0418H73.1674C74.5123 56.0418 75.7285 56.5877 76.6117 57.467C77.6105 58.4612 78.1611 60.0192 78.0107 61.4094C77.932 62.1365 77.7271 62.8172 77.3303 63.4385C77.0523 63.8737 76.7273 64.2758 76.3326 64.6108C75.4795 65.3393 74.3756 65.7809 73.1672 65.7809H69.6125C70.9574 65.7809 72.1758 66.3268 73.0549 67.2061C73.9185 68.0697 74.4295 69.2377 74.4781 70.4588C74.516 71.4088 74.2713 72.3615 73.7777 73.1746C73.3053 73.9526 72.6144 74.5918 71.8017 75.0016C71.1248 75.3428 70.3705 75.5201 69.6125 75.5201H65.1986C67.8883 75.5201 70.0682 73.3403 70.0682 70.6506C70.0682 70.6375 70.0682 70.6244 70.068 70.6114C70.0533 68.7614 68.5092 67.2864 66.6592 67.2864H65.6789C64.9135 67.2864 64.2314 66.7365 64.1352 65.9774C64.0187 65.059 64.7326 64.2756 65.6281 64.2756H70.2143C72.0642 64.2756 73.6082 62.8006 73.6228 60.9508C73.623 60.9377 73.623 60.9246 73.623 60.9115C73.623 60.8985 73.623 60.8854 73.6228 60.8723C73.6084 59.0223 72.0642 57.5473 70.2143 57.5473H66.9355C66.1701 57.5473 65.4881 56.9975 65.3918 56.2383C65.2754 55.3199 65.9893 54.5365 66.8848 54.5365H72.95C74.8 54.5365 76.3441 53.0615 76.3586 51.2115C76.3588 51.1985 76.3588 51.1856 76.3588 51.1725C76.3588 51.1594 76.3588 51.1463 76.3586 51.1332C76.3439 49.2832 74.8 47.8084 72.95 47.8084H69.0467C68.2211 47.8084 67.5021 47.1707 67.4795 46.3455C67.456 45.493 68.1393 44.7977 68.9844 44.7977H70.1504C72.0791 44.7977 73.6721 43.224 73.6203 41.2961C73.6199 41.2824 73.6195 41.2686 73.6189 41.2549C73.5246 38.6174 71.2766 36.5641 68.6371 36.5641H73.051C73.7113 36.5641 74.3476 36.6926 74.9297 36.9254C75.5629 37.1787 76.1795 37.583 76.6619 38.0836C77.4728 38.9106 77.9887 40.0186 78.0328 41.2551C78.0812 42.6115 77.5344 43.9836 76.5433 44.9405C75.6682 45.7854 74.4779 46.3033 73.1672 46.3033H75.9031C76.4209 46.3033 76.9207 46.3836 77.3885 46.5342C77.7178 46.6403 78.0363 46.778 78.3357 46.952C79.4201 47.5819 80.2363 48.5553 80.5742 49.7727C80.6967 50.2131 80.7709 50.6992 80.7678 51.1723Z" fill="#FFB09E"/>
<path d="M33.621 69.0562H19.7565C19.4639 69.0562 19.2268 68.8191 19.2268 68.5265V44.2244C19.2268 43.9318 19.4639 43.6947 19.7565 43.6947H33.621V69.0562Z" fill="#A6E7F0"/>
<path d="M29.6067 43.6951H33.6211V69.0563H29.6067V43.6951Z" fill="#6BD9E7"/>
</svg>
