<svg width="100" height="100" viewBox="0 0 100 100" fill="none" xmlns="http://www.w3.org/2000/svg">
<path d="M100 56.6402V43.36C100 42.414 99.2331 41.647 98.287 41.647H92.1063C91.313 41.647 90.6157 41.1073 90.4319 40.3356C89.4011 36.0083 87.6921 31.9442 85.4259 28.2598C85.0089 27.5819 85.1057 26.7081 85.6684 26.1452L90.0507 21.7629C90.7196 21.094 90.7196 20.0092 90.0507 19.3401L80.6602 9.94943C79.9913 9.28049 78.9065 9.28049 78.2374 9.94943L73.8551 14.3317C73.2922 14.8946 72.4186 14.9914 71.7405 14.5742C68.0559 12.3078 63.992 10.599 59.6647 9.56799C58.893 9.3842 58.3533 8.68693 58.3533 7.89357V1.71309C58.3533 0.766994 57.5863 0 56.6403 0H43.3601C42.4141 0 41.6471 0.766994 41.6471 1.71309V7.89377C41.6471 8.68713 41.1074 9.38439 40.3357 9.56818C36.0084 10.599 31.9443 12.308 28.2599 14.5744C27.582 14.9914 26.7082 14.8946 26.1453 14.3319L21.763 9.94963C21.0941 9.28068 20.0093 9.28068 19.3402 9.94963L9.94934 19.3399C9.2804 20.0088 9.2804 21.0936 9.94934 21.7627L14.3316 26.145C14.8945 26.7079 14.9913 27.5815 14.5742 28.2596C12.3077 31.9442 10.599 36.0081 9.56809 40.3354C9.3843 41.1071 8.68704 41.6468 7.89367 41.6468H1.713C0.766902 41.6468 -9.15527e-05 42.4138 -9.15527e-05 43.3599V56.64C-9.15527e-05 57.5861 0.766902 58.353 1.713 58.353H7.89367C8.68704 58.353 9.3843 58.8927 9.56809 59.6644C10.599 63.9917 12.3079 68.0558 14.5742 71.7402C14.9911 72.4181 14.8943 73.2919 14.3316 73.8548L9.94934 78.2371C9.2804 78.906 9.2804 79.9908 9.94934 80.6599L19.3398 90.0504C20.0087 90.7193 21.0935 90.7193 21.7626 90.0504L26.1449 85.6681C26.7078 85.1052 27.5814 85.0084 28.2595 85.4256C31.9441 87.692 36.008 89.4008 40.3353 90.4318C41.107 90.6156 41.6467 91.3129 41.6467 92.1062V98.2869C41.6467 99.233 42.4137 100 43.3598 100H56.6399C57.586 100 58.353 99.233 58.353 98.2869V92.1062C58.353 91.3129 58.8926 90.6156 59.6643 90.4318C63.9916 89.401 68.0557 87.692 71.7401 85.4256C72.418 85.0086 73.2918 85.1054 73.8547 85.6681L78.237 90.0504C78.9059 90.7193 79.9907 90.7193 80.6598 90.0504L90.0503 80.6599C90.7192 79.991 90.7192 78.9062 90.0503 78.2371L85.668 73.8548C85.1052 73.2919 85.0083 72.4183 85.4255 71.7402C87.6919 68.0556 89.4007 63.9917 90.4315 59.6644C90.6153 58.8927 91.3126 58.353 92.1059 58.353H98.2866C99.2331 58.3534 100 57.5863 100 56.6402Z" fill="#A2AEE6"/>
<path d="M69.1781 84.6024L70.434 86.1948C67.1016 88.0817 63.4862 89.5212 59.6641 90.4325C58.8932 90.6151 58.3531 91.3137 58.3531 92.1067V98.2878C58.3531 99.2333 57.5863 100 56.6408 100H52.626C53.5715 100 54.3383 99.2333 54.3383 98.2878V90.2194C54.3383 89.4264 54.8783 88.73 55.6492 88.5452C59.9774 87.5153 63.3065 86.086 67.0625 84.3594C67.7869 84.0262 68.6141 84.0403 69.1781 84.6024Z" fill="#8795DE"/>
<path d="M59.6639 9.56784C63.5885 10.5034 67.8012 12.2903 71.2059 14.2516L70.0803 16.0059C69.5163 16.5681 68.643 16.6665 67.9645 16.2489C64.2809 13.9825 60.194 12.5335 55.649 11.1243C54.8922 10.8874 54.3381 10.243 54.3381 9.44811V1.71255C54.3381 0.767042 53.5713 0.000244141 52.6258 0.000244141H56.6406C57.5862 0.000244141 58.353 0.767042 58.353 1.71255V7.89362C58.3531 8.68659 58.893 9.38522 59.6639 9.56784Z" fill="#8795DE"/>
<path d="M88.0917 58.3531H92.1065C91.3135 58.3531 90.6149 58.8932 90.4323 59.6641C89.4004 63.9922 87.692 68.0553 85.4256 71.7411C85.0081 72.4196 85.1045 73.2928 85.6686 73.8549L90.0508 78.2372C90.7194 78.9057 90.7194 79.9917 90.0508 80.6602L80.66 90.0511C79.9914 90.7196 78.9055 90.7196 78.2369 90.0511L77.442 89.2561L86.036 80.6602C86.7045 79.9917 86.7045 78.9057 86.036 78.2372L81.6537 73.8549C81.0897 73.2928 80.9932 72.4196 81.4108 71.7411C83.6772 68.0553 85.3856 63.9922 86.4174 59.6641C86.6 58.893 87.2987 58.3531 88.0917 58.3531Z" fill="#8795DE"/>
<path d="M92.1065 41.647H88.0917C87.2987 41.647 86.6 41.107 86.4174 40.3361C85.3856 36.0079 83.6772 31.9448 81.4108 28.2591C80.9932 27.5806 81.0895 26.7073 81.6537 26.1452L86.036 21.763C86.7045 21.0944 86.7045 20.0085 86.036 19.3399L77.442 10.7462L78.2369 9.94929C78.9055 9.28074 79.9914 9.28074 80.66 9.94929L90.0508 19.3401C90.7194 20.0087 90.7194 21.0946 90.0508 21.7632L85.6686 26.1454C85.1045 26.7075 85.0081 27.5808 85.4256 28.2593C87.692 31.945 89.4004 36.0081 90.4323 40.3363C90.6149 41.1072 91.3135 41.647 92.1065 41.647Z" fill="#8795DE"/>
<path d="M99.9999 43.3596V56.6409C99.9999 57.5864 99.2331 58.3532 98.2876 58.3532H94.2727C95.2182 58.3532 95.985 57.5864 95.985 56.6409V43.3596C95.985 42.4141 95.2182 41.6473 94.2727 41.6473H98.2876C99.2331 41.6471 99.9999 42.4141 99.9999 43.3596Z" fill="#8795DE"/>
<path d="M50 80.7813C67 80.7813 80.7811 67.0002 80.7811 50.0002C80.7811 33.0003 67 19.2191 50 19.2191C33.0001 19.2191 19.2189 33.0003 19.2189 50.0002C19.2189 67.0002 33.0001 80.7813 50 80.7813Z" fill="#FAF7F7"/>
<path d="M80.7805 50.0001C80.7805 66.9994 66.9993 80.7804 50 80.7804C45.2262 80.7804 40.7054 79.6945 36.6744 77.7533C39.5652 78.6527 42.6386 79.1365 45.8264 79.1365C62.8256 79.1365 76.6067 65.3552 76.6067 48.356C76.6067 36.1325 69.4801 25.5733 59.1559 20.6047C71.6846 24.5034 80.7805 36.1888 80.7805 50.0001Z" fill="#EDE1DD"/>
<path d="M45.7225 64.1254C44.4301 64.1254 43.186 63.6239 42.2541 62.7231L33.9422 54.6895C31.9604 52.7739 31.9064 49.6141 33.8219 47.632C35.7375 45.6504 38.8965 45.5955 40.8797 47.5117L45.52 51.9965L58.9225 37.4805C60.7922 35.4551 63.9501 35.3291 65.9755 37.199C68.0005 39.0689 68.1266 42.2268 66.2565 44.252L49.3901 62.52C48.4789 63.5071 47.208 64.085 45.8651 64.1235C45.8174 64.1247 45.77 64.1254 45.7225 64.1254Z" fill="#A6E7F0"/>
<path d="M66.2565 44.2528L49.3898 62.5208C48.4785 63.5065 47.2078 64.0847 45.8646 64.1228C45.8164 64.1247 45.7703 64.1247 45.7221 64.1247C44.4293 64.1247 43.1867 63.6228 42.2531 62.7235L41.6287 62.1192C42.7789 61.9306 43.841 61.3624 44.6398 60.4972L62.442 41.2155C63.791 39.754 64.1565 37.7346 63.5682 35.9719C64.4395 36.1446 65.2744 36.552 65.9752 37.1985C68.001 39.0694 68.1254 42.2272 66.2565 44.2528Z" fill="#6BD9E7"/>
</svg>
