<svg width="32" height="20" viewBox="0 0 32 20" fill="none" xmlns="http://www.w3.org/2000/svg">
<path fill-rule="evenodd" clip-rule="evenodd" d="M20.4478 3.33735H28.922V0.909515H20.4478V3.33735ZM22.4554 8.63481C21.9154 9.18423 21.5749 9.92854 21.4356 10.8677H28.0264C27.9568 9.86543 27.6144 9.10812 27.0085 8.58654C26.3952 8.06867 25.6407 7.81067 24.7376 7.81067C23.7592 7.81067 22.9953 8.08539 22.4554 8.63481ZM28.1751 5.37541C29.1967 5.82459 30.0377 6.53736 30.7 7.50998C31.3039 8.36752 31.6915 9.36241 31.8684 10.4928C31.9719 11.1536 32.0133 12.1114 31.9963 13.3568H21.3416C21.4055 14.8028 21.9097 15.8181 22.873 16.3991C23.4563 16.761 24.1581 16.9429 24.9822 16.9429C25.8495 16.9429 26.5589 16.722 27.1026 16.2821C27.4018 16.0427 27.6652 15.7123 27.891 15.2891H31.795C31.6915 16.1429 31.2174 17.0135 30.3783 17.897C29.0688 19.2984 27.2343 20 24.8768 20C22.9295 20 21.2117 19.4097 19.7273 18.2255C18.2352 17.0432 17.4939 15.1165 17.4939 12.451C17.4939 9.95081 18.1656 8.03341 19.5071 6.69884C20.8524 5.36798 22.5927 4.69792 24.7357 4.69792C26.0095 4.69792 27.1553 4.92436 28.1751 5.37541ZM3.94169 10.9197V16.1225H8.74321C9.60116 16.1225 10.271 16.0074 10.747 15.7791C11.6143 15.3522 12.0471 14.5429 12.0471 13.3439C12.0471 12.3267 11.6294 11.6306 10.7884 11.2501C10.318 11.0385 9.65762 10.9271 8.81096 10.9197H3.94169ZM3.94169 3.38747V7.69188H8.75073C9.6068 7.69188 10.3048 7.5304 10.8429 7.20743C11.3773 6.88446 11.6463 6.31276 11.6463 5.49605C11.6463 4.58468 11.2926 3.98516 10.5852 3.69188C9.97181 3.48956 9.19288 3.38747 8.2465 3.38747H3.94169ZM14.6811 2.07889C15.2851 2.90859 15.588 3.89977 15.588 5.05615C15.588 6.24594 15.2851 7.20557 14.6736 7.92946C14.3312 8.3341 13.8288 8.70533 13.1647 9.03944C14.1731 9.40324 14.9332 9.9768 15.4506 10.762C15.9624 11.5452 16.2202 12.4993 16.2202 13.6204C16.2202 14.7768 15.9267 15.8144 15.3378 16.7313C14.9652 17.3383 14.4986 17.8506 13.9379 18.2664C13.3077 18.7434 12.5645 19.0682 11.7046 19.2464C10.8448 19.4227 9.91535 19.5081 8.91065 19.5081H0V0H9.55599C11.968 0.0352667 13.6745 0.727612 14.6811 2.07889Z" fill="black"/>
</svg>
