<svg width="35" height="35" viewBox="0 0 35 35" fill="none" xmlns="http://www.w3.org/2000/svg">
<path d="M21.5 8.49989C21.1946 8.81143 21.0235 9.2303 21.0235 9.66655C21.0235 10.1028 21.1946 10.5217 21.5 10.8332L24.1666 13.4999C24.4782 13.8053 24.8971 13.9763 25.3333 13.9763C25.7696 13.9763 26.1884 13.8053 26.5 13.4999L32.7833 7.21655C33.6214 9.06853 33.8751 11.1319 33.5107 13.1318C33.1464 15.1316 32.1812 16.973 30.7438 18.4104C29.3064 19.8477 27.4651 20.8129 25.4652 21.1773C23.4654 21.5417 21.402 21.2879 19.55 20.4499L8.03331 31.9666C7.37026 32.6296 6.47099 33.0021 5.53331 33.0021C4.59562 33.0021 3.69635 32.6296 3.03331 31.9666C2.37026 31.3035 1.99777 30.4042 1.99777 29.4666C1.99777 28.5289 2.37026 27.6296 3.03331 26.9666L14.55 15.4499C13.7119 13.5979 13.4582 11.5345 13.8225 9.53464C14.1869 7.53479 15.1521 5.69348 16.5895 4.25609C18.0269 2.8187 19.8682 1.8535 21.8681 1.48912C23.8679 1.12474 25.9313 1.37849 27.7833 2.21655L21.5166 8.48322L21.5 8.49989Z" stroke="#5200D7" stroke-width="2" stroke-linecap="round" stroke-linejoin="round"/>
</svg>
